<svg width="26" height="25" viewBox="0 0 26 25" fill="none" xmlns="http://www.w3.org/2000/svg">
    <path d="M10.333 3.16667C10.333 2.45942 10.614 1.78115 11.1141 1.28105C11.6142 0.780952 12.2924 0.5 12.9997 0.5C13.7069 0.5 14.3852 0.780952 14.8853 1.28105C15.3854 1.78115 15.6663 2.45942 15.6663 3.16667C17.1976 3.8907 18.5029 5.01777 19.4424 6.42707C20.3819 7.83637 20.9203 9.47477 20.9997 11.1667V15.1667C21.1 15.9956 21.3936 16.7894 21.8568 17.4842C22.3199 18.1789 22.9398 18.7552 23.6663 19.1667H2.33301C3.05959 18.7552 3.67942 18.1789 4.14259 17.4842C4.60576 16.7894 4.89934 15.9956 4.99968 15.1667V11.1667C5.07909 9.47477 5.61741 7.83637 6.55694 6.42707C7.49647 5.01777 8.8018 3.8907 10.333 3.16667" stroke="#8A8A8A" stroke-linecap="round" stroke-linejoin="round"/>
    <path d="M9 19.166V20.4993C9 21.5602 9.42143 22.5776 10.1716 23.3278C10.9217 24.0779 11.9391 24.4994 13 24.4994C14.0609 24.4994 15.0783 24.0779 15.8284 23.3278C16.5786 22.5776 17 21.5602 17 20.4993V19.166" stroke="#8A8A8A" stroke-linecap="round" stroke-linejoin="round"/>
    <path d="M24.9998 5.46934C24.1252 3.56701 22.8552 1.87293 21.2744 0.5" stroke="#2D2D2D" stroke-linecap="round" stroke-linejoin="round"/>
    <path d="M1 5.46934C1.8738 3.56725 3.14287 1.8732 4.72267 0.5" stroke="white" stroke-linecap="round" stroke-linejoin="round"/>
</svg>
